<svg width="305" height="89" viewBox="0 0 305 89" fill="none" xmlns="http://www.w3.org/2000/svg">
<rect x="1" width="304" height="37" fill="black" fill-opacity="0.26"/>
<rect y="1" width="3" height="38" fill="#17ABFF"/>
<path d="M21.3 17.112C21.3 16.006 20.684 15.292 19.228 15.292H17.352V18.988H19.228C20.67 18.988 21.3 18.204 21.3 17.112ZM16.078 14.242H19.228C21.524 14.242 22.616 15.516 22.616 17.112C22.616 18.358 21.93 19.548 20.292 19.912L22.742 24H21.216L18.892 20.01H17.352V24H16.078V14.242ZM27.8576 17.28C26.6116 17.28 25.5756 18.106 25.4356 19.604H30.2796C30.2936 18.106 29.1736 17.28 27.8576 17.28ZM31.4416 21.634C31.0496 23.034 29.8176 24.126 27.9136 24.126C25.7296 24.126 24.1196 22.586 24.1196 20.15C24.1196 17.728 25.6736 16.202 27.9136 16.202C30.1396 16.202 31.5956 17.77 31.5956 19.87C31.5956 20.15 31.5816 20.374 31.5536 20.64H25.4216C25.5196 22.194 26.6116 23.048 27.9136 23.048C29.0616 23.048 29.7896 22.46 30.0696 21.634H31.4416ZM38.8912 24V19.66C38.8912 18.092 38.0372 17.294 36.7492 17.294C35.4472 17.294 34.5512 18.106 34.5512 19.758V24H33.2772V16.328H34.5512V17.42C35.0552 16.622 35.9792 16.188 37.0152 16.188C38.7932 16.188 40.1512 17.28 40.1512 19.478V24H38.8912ZM42.5123 21.9V17.378H41.5183V16.328H42.5123V14.396H43.7863V16.328H45.7883V17.378H43.7863V21.9C43.7863 22.656 44.0663 22.922 44.8503 22.922H45.7883V24H44.6403C43.2823 24 42.5123 23.44 42.5123 21.9ZM46.8559 20.136C46.8559 17.742 48.4379 16.202 50.4959 16.202C51.9239 16.202 52.9039 16.93 53.3519 17.728V16.328H54.6399V24H53.3519V22.572C52.8899 23.398 51.8959 24.126 50.4819 24.126C48.4379 24.126 46.8559 22.516 46.8559 20.136ZM53.3519 20.15C53.3519 18.372 52.1479 17.308 50.7479 17.308C49.3479 17.308 48.1579 18.33 48.1579 20.136C48.1579 21.942 49.3479 23.006 50.7479 23.006C52.1479 23.006 53.3519 21.956 53.3519 20.15ZM56.7928 24V13.64H58.0668V24H56.7928ZM69.1926 17.112C69.1926 16.006 68.5766 15.292 67.1206 15.292H65.2446V18.988H67.1206C68.5626 18.988 69.1926 18.204 69.1926 17.112ZM63.9706 14.242H67.1206C69.4166 14.242 70.5086 15.516 70.5086 17.112C70.5086 18.358 69.8226 19.548 68.1846 19.912L70.6346 24H69.1086L66.7846 20.01H65.2446V24H63.9706V14.242ZM75.7502 17.28C74.5042 17.28 73.4682 18.106 73.3282 19.604H78.1722C78.1862 18.106 77.0662 17.28 75.7502 17.28ZM79.3342 21.634C78.9422 23.034 77.7102 24.126 75.8062 24.126C73.6222 24.126 72.0122 22.586 72.0122 20.15C72.0122 17.728 73.5662 16.202 75.8062 16.202C78.0322 16.202 79.4882 17.77 79.4882 19.87C79.4882 20.15 79.4742 20.374 79.4462 20.64H73.3142C73.4122 22.194 74.5042 23.048 75.8062 23.048C76.9542 23.048 77.6822 22.46 77.9622 21.634H79.3342ZM81.4498 21.9V17.378H80.4558V16.328H81.4498V14.396H82.7238V16.328H84.7258V17.378H82.7238V21.9C82.7238 22.656 83.0038 22.922 83.7878 22.922H84.7258V24H83.5778C82.2198 24 81.4498 23.44 81.4498 21.9ZM93.0734 16.328V24H91.7994V22.866C91.3094 23.664 90.3714 24.112 89.3494 24.112C87.5854 24.112 86.1994 23.02 86.1994 20.822V16.328H87.4594V20.654C87.4594 22.208 88.3134 23.006 89.6014 23.006C90.9174 23.006 91.7994 22.194 91.7994 20.542V16.328H93.0734ZM96.4985 19.828V24H95.2245V16.328H96.4985V17.574C96.9325 16.72 97.7585 16.188 98.9765 16.188V17.504H98.6405C97.4225 17.504 96.4985 18.05 96.4985 19.828ZM106.061 24V19.66C106.061 18.092 105.207 17.294 103.919 17.294C102.617 17.294 101.721 18.106 101.721 19.758V24H100.447V16.328H101.721V17.42C102.225 16.622 103.149 16.188 104.185 16.188C105.963 16.188 107.321 17.28 107.321 19.478V24H106.061ZM114.918 21.914C114.918 23.174 113.812 24.126 112.118 24.126C110.326 24.126 109.066 23.146 108.982 21.746H110.298C110.368 22.488 111.026 23.048 112.104 23.048C113.112 23.048 113.672 22.544 113.672 21.914C113.672 20.206 109.136 21.2 109.136 18.344C109.136 17.168 110.242 16.202 111.95 16.202C113.644 16.202 114.764 17.112 114.848 18.61H113.574C113.518 17.84 112.93 17.28 111.908 17.28C110.97 17.28 110.41 17.728 110.41 18.344C110.41 20.164 114.862 19.17 114.918 21.914ZM127.729 20.15C127.729 22.586 125.979 24.126 123.795 24.126C121.625 24.126 119.973 22.586 119.973 20.15C119.973 17.728 121.681 16.202 123.851 16.202C126.035 16.202 127.729 17.728 127.729 20.15ZM121.275 20.15C121.275 22.096 122.465 23.006 123.795 23.006C125.125 23.006 126.427 22.096 126.427 20.15C126.427 18.218 125.153 17.308 123.837 17.308C122.493 17.308 121.275 18.218 121.275 20.15ZM129.642 24V17.378H128.648V16.328H129.642V15.782C129.642 14.074 130.482 13.304 132.442 13.304V14.368C131.294 14.368 130.916 14.788 130.916 15.782V16.328H132.526V17.378H130.916V24H129.642ZM137.738 19.728V12.832H139.978V19.744C139.978 21.28 140.81 22.08 142.234 22.08C143.674 22.08 144.506 21.28 144.506 19.744V12.832H146.762V19.728C146.762 22.672 144.65 24.112 142.202 24.112C139.754 24.112 137.738 22.672 137.738 19.728ZM151.166 17.904H152.942C154.206 17.904 154.766 17.28 154.766 16.288C154.766 15.264 154.206 14.656 152.942 14.656H151.166V17.904ZM157.07 16.288C157.07 17.984 155.918 19.712 153.038 19.712H151.166V24H148.926V12.832H153.038C155.726 12.832 157.07 14.352 157.07 16.288ZM158.069 14.64V12.832H166.261V14.64H163.285V24H161.045V14.64H158.069ZM178.791 18.384C178.791 21.744 176.247 24.112 173.079 24.112C169.927 24.112 167.351 21.744 167.351 18.384C167.351 15.04 169.927 12.672 173.079 12.672C176.263 12.672 178.791 15.04 178.791 18.384ZM169.655 18.384C169.655 20.656 171.047 22.112 173.079 22.112C175.095 22.112 176.487 20.656 176.487 18.384C176.487 16.112 175.095 14.688 173.079 14.688C171.047 14.688 169.655 16.112 169.655 18.384ZM185.294 24V14.4H183.742V12.336H187.598V24H185.294ZM191.091 24V14.4H189.539V12.336H193.395V24H191.091ZM195.352 15.2C195.352 13.536 196.44 12.608 197.896 12.608C199.352 12.608 200.44 13.536 200.44 15.2C200.44 16.88 199.352 17.808 197.896 17.808C196.44 17.808 195.352 16.88 195.352 15.2ZM197.88 13.952C197.336 13.952 197 14.32 197 15.2C197 16.08 197.336 16.464 197.88 16.464C198.44 16.464 198.792 16.08 198.792 15.2C198.792 14.32 198.44 13.952 197.88 13.952ZM197.16 24L203.432 12.8H205.624L199.336 24H197.16ZM202.376 21.584C202.376 19.904 203.464 18.992 204.92 18.992C206.36 18.992 207.432 19.904 207.432 21.584C207.432 23.28 206.36 24.192 204.92 24.192C203.464 24.192 202.376 23.28 202.376 21.584ZM204.904 20.336C204.344 20.336 203.992 20.704 203.992 21.584C203.992 22.48 204.344 22.848 204.904 22.848C205.448 22.848 205.8 22.48 205.8 21.584C205.8 20.704 205.448 20.336 204.904 20.336ZM213.033 12.192L212.649 14.416L214.409 13.024L215.209 14.464L213.129 15.216L215.209 15.968L214.377 17.456L212.649 16.032L213.017 18.24H211.353L211.705 16.032L209.993 17.488L209.113 15.952L211.193 15.2L209.129 14.48L209.945 13.008L211.721 14.416L211.353 12.192H213.033ZM221.315 12.192L220.931 14.416L222.691 13.024L223.491 14.464L221.411 15.216L223.491 15.968L222.659 17.456L220.931 16.032L221.299 18.24H219.635L219.987 16.032L218.275 17.488L217.395 15.952L219.475 15.2L217.411 14.48L218.227 13.008L220.003 14.416L219.635 12.192H221.315Z" fill="#E7EBEF"/>
<rect x="1" y="48.5" width="304" height="37" fill="black" fill-opacity="0.26"/>
<rect y="51" width="3" height="38" fill="#17ABFF"/>
<path d="M18.602 67.614C18.602 64.688 20.744 62.616 23.474 62.616C25.588 62.616 27.268 63.68 27.996 65.57H26.47C25.938 64.394 24.902 63.736 23.474 63.736C21.43 63.736 19.904 65.22 19.904 67.614C19.904 69.994 21.43 71.478 23.474 71.478C24.902 71.478 25.938 70.82 26.47 69.658H27.996C27.268 71.534 25.588 72.584 23.474 72.584C20.744 72.584 18.602 70.54 18.602 67.614ZM29.4165 68.636C29.4165 66.242 30.9985 64.702 33.0565 64.702C34.4845 64.702 35.4645 65.43 35.9125 66.228V64.828H37.2005V72.5H35.9125V71.072C35.4505 71.898 34.4565 72.626 33.0425 72.626C30.9985 72.626 29.4165 71.016 29.4165 68.636ZM35.9125 68.65C35.9125 66.872 34.7085 65.808 33.3085 65.808C31.9085 65.808 30.7185 66.83 30.7185 68.636C30.7185 70.442 31.9085 71.506 33.3085 71.506C34.7085 71.506 35.9125 70.456 35.9125 68.65ZM40.6274 66.242C41.0894 65.43 42.0974 64.702 43.4974 64.702C45.5554 64.702 47.1374 66.242 47.1374 68.636C47.1374 71.016 45.5554 72.626 43.4974 72.626C42.0974 72.626 41.1034 71.87 40.6274 71.086V76.14H39.3534V64.828H40.6274V66.242ZM45.8354 68.636C45.8354 66.83 44.6454 65.808 43.2314 65.808C41.8454 65.808 40.6274 66.872 40.6274 68.65C40.6274 70.456 41.8454 71.506 43.2314 71.506C44.6454 71.506 45.8354 70.442 45.8354 68.636ZM48.8143 72.5V64.828H50.0883V72.5H48.8143ZM49.4723 63.582C48.9823 63.582 48.6043 63.204 48.6043 62.714C48.6043 62.224 48.9823 61.846 49.4723 61.846C49.9343 61.846 50.3123 62.224 50.3123 62.714C50.3123 63.204 49.9343 63.582 49.4723 63.582ZM52.5396 70.4V65.878H51.5456V64.828H52.5396V62.896H53.8136V64.828H55.8156V65.878H53.8136V70.4C53.8136 71.156 54.0936 71.422 54.8776 71.422H55.8156V72.5H54.6676C53.3096 72.5 52.5396 71.94 52.5396 70.4ZM56.8833 68.636C56.8833 66.242 58.4653 64.702 60.5233 64.702C61.9513 64.702 62.9313 65.43 63.3793 66.228V64.828H64.6673V72.5H63.3793V71.072C62.9173 71.898 61.9233 72.626 60.5093 72.626C58.4653 72.626 56.8833 71.016 56.8833 68.636ZM63.3793 68.65C63.3793 66.872 62.1753 65.808 60.7753 65.808C59.3753 65.808 58.1853 66.83 58.1853 68.636C58.1853 70.442 59.3753 71.506 60.7753 71.506C62.1753 71.506 63.3793 70.456 63.3793 68.65ZM66.8202 72.5V62.14H68.0942V72.5H66.8202ZM80.5499 72.5L79.7659 70.33H75.5099L74.7259 72.5H73.3819L76.9099 62.798H78.3799L81.8939 72.5H80.5499ZM79.4019 69.294L77.6379 64.366L75.8739 69.294H79.4019ZM84.7055 66.242C85.1675 65.43 86.1755 64.702 87.5755 64.702C89.6335 64.702 91.2155 66.242 91.2155 68.636C91.2155 71.016 89.6335 72.626 87.5755 72.626C86.1755 72.626 85.1815 71.87 84.7055 71.086V76.14H83.4315V64.828H84.7055V66.242ZM89.9135 68.636C89.9135 66.83 88.7235 65.808 87.3095 65.808C85.9235 65.808 84.7055 66.872 84.7055 68.65C84.7055 70.456 85.9235 71.506 87.3095 71.506C88.7235 71.506 89.9135 70.442 89.9135 68.636ZM94.1665 66.242C94.6285 65.43 95.6365 64.702 97.0365 64.702C99.0945 64.702 100.676 66.242 100.676 68.636C100.676 71.016 99.0945 72.626 97.0365 72.626C95.6365 72.626 94.6425 71.87 94.1665 71.086V76.14H92.8925V64.828H94.1665V66.242ZM99.3745 68.636C99.3745 66.83 98.1845 65.808 96.7705 65.808C95.3845 65.808 94.1665 66.872 94.1665 68.65C94.1665 70.456 95.3845 71.506 96.7705 71.506C98.1845 71.506 99.3745 70.442 99.3745 68.636ZM103.627 68.328V72.5H102.353V64.828H103.627V66.074C104.061 65.22 104.887 64.688 106.105 64.688V66.004H105.769C104.551 66.004 103.627 66.55 103.627 68.328ZM110.838 65.78C109.592 65.78 108.556 66.606 108.416 68.104H113.26C113.274 66.606 112.154 65.78 110.838 65.78ZM114.422 70.134C114.03 71.534 112.798 72.626 110.894 72.626C108.71 72.626 107.1 71.086 107.1 68.65C107.1 66.228 108.654 64.702 110.894 64.702C113.12 64.702 114.576 66.27 114.576 68.37C114.576 68.65 114.562 68.874 114.534 69.14H108.402C108.5 70.694 109.592 71.548 110.894 71.548C112.042 71.548 112.77 70.96 113.05 70.134H114.422ZM115.782 68.65C115.782 66.242 117.336 64.702 119.52 64.702C121.424 64.702 122.67 65.682 123.062 67.292H121.69C121.424 66.368 120.654 65.78 119.52 65.78C118.12 65.78 117.084 66.774 117.084 68.65C117.084 70.554 118.12 71.548 119.52 71.548C120.654 71.548 121.41 71.002 121.69 70.036H123.062C122.67 71.562 121.424 72.626 119.52 72.626C117.336 72.626 115.782 71.086 115.782 68.65ZM124.762 72.5V64.828H126.036V72.5H124.762ZM125.42 63.582C124.93 63.582 124.552 63.204 124.552 62.714C124.552 62.224 124.93 61.846 125.42 61.846C125.882 61.846 126.26 62.224 126.26 62.714C126.26 63.204 125.882 63.582 125.42 63.582ZM127.731 68.636C127.731 66.242 129.313 64.702 131.371 64.702C132.799 64.702 133.779 65.43 134.227 66.228V64.828H135.515V72.5H134.227V71.072C133.765 71.898 132.771 72.626 131.357 72.626C129.313 72.626 127.731 71.016 127.731 68.636ZM134.227 68.65C134.227 66.872 133.023 65.808 131.623 65.808C130.223 65.808 129.033 66.83 129.033 68.636C129.033 70.442 130.223 71.506 131.623 71.506C133.023 71.506 134.227 70.456 134.227 68.65ZM137.948 70.4V65.878H136.954V64.828H137.948V62.896H139.222V64.828H141.224V65.878H139.222V70.4C139.222 71.156 139.502 71.422 140.286 71.422H141.224V72.5H140.076C138.718 72.5 137.948 71.94 137.948 70.4ZM142.767 72.5V64.828H144.041V72.5H142.767ZM143.425 63.582C142.935 63.582 142.557 63.204 142.557 62.714C142.557 62.224 142.935 61.846 143.425 61.846C143.887 61.846 144.265 62.224 144.265 62.714C144.265 63.204 143.887 63.582 143.425 63.582ZM153.493 68.65C153.493 71.086 151.743 72.626 149.559 72.626C147.389 72.626 145.737 71.086 145.737 68.65C145.737 66.228 147.445 64.702 149.615 64.702C151.799 64.702 153.493 66.228 153.493 68.65ZM147.039 68.65C147.039 70.596 148.229 71.506 149.559 71.506C150.889 71.506 152.191 70.596 152.191 68.65C152.191 66.718 150.917 65.808 149.601 65.808C148.257 65.808 147.039 66.718 147.039 68.65ZM160.782 72.5V68.16C160.782 66.592 159.928 65.794 158.64 65.794C157.338 65.794 156.442 66.606 156.442 68.258V72.5H155.168V64.828H156.442V65.92C156.946 65.122 157.87 64.688 158.906 64.688C160.684 64.688 162.042 65.78 162.042 67.978V72.5H160.782ZM175.135 68.65C175.135 71.086 173.385 72.626 171.201 72.626C169.031 72.626 167.379 71.086 167.379 68.65C167.379 66.228 169.087 64.702 171.257 64.702C173.441 64.702 175.135 66.228 175.135 68.65ZM168.681 68.65C168.681 70.596 169.871 71.506 171.201 71.506C172.531 71.506 173.833 70.596 173.833 68.65C173.833 66.718 172.559 65.808 171.243 65.808C169.899 65.808 168.681 66.718 168.681 68.65ZM177.048 72.5V65.878H176.054V64.828H177.048V64.282C177.048 62.574 177.888 61.804 179.848 61.804V62.868C178.7 62.868 178.322 63.288 178.322 64.282V64.828H179.932V65.878H178.322V72.5H177.048ZM185.144 68.228V61.332H187.384V68.244C187.384 69.78 188.216 70.58 189.64 70.58C191.08 70.58 191.912 69.78 191.912 68.244V61.332H194.168V68.228C194.168 71.172 192.056 72.612 189.608 72.612C187.16 72.612 185.144 71.172 185.144 68.228ZM198.573 66.404H200.349C201.613 66.404 202.173 65.78 202.173 64.788C202.173 63.764 201.613 63.156 200.349 63.156H198.573V66.404ZM204.477 64.788C204.477 66.484 203.325 68.212 200.445 68.212H198.573V72.5H196.333V61.332H200.445C203.133 61.332 204.477 62.852 204.477 64.788ZM205.475 63.14V61.332H213.667V63.14H210.691V72.5H208.451V63.14H205.475ZM226.197 66.884C226.197 70.244 223.653 72.612 220.485 72.612C217.333 72.612 214.757 70.244 214.757 66.884C214.757 63.54 217.333 61.172 220.485 61.172C223.669 61.172 226.197 63.54 226.197 66.884ZM217.061 66.884C217.061 69.156 218.453 70.612 220.485 70.612C222.501 70.612 223.893 69.156 223.893 66.884C223.893 64.612 222.501 63.188 220.485 63.188C218.453 63.188 217.061 64.612 217.061 66.884ZM231.452 63.908C231.564 61.748 233.1 60.564 235.34 60.564C237.74 60.564 239.02 61.924 239.02 63.652C239.02 65.108 238.108 66.004 237.26 66.292V66.356C238.444 66.724 239.228 67.684 239.228 69.268C239.228 71.172 237.884 72.58 235.436 72.58C233.132 72.58 231.388 71.428 231.292 68.98H233.468C233.516 69.988 234.188 70.708 235.388 70.708C236.508 70.708 237.084 70.004 237.084 69.076C237.084 67.764 236.252 67.284 234.588 67.284H234.124V65.444H234.588C235.9 65.444 236.86 65.076 236.86 63.924C236.86 63.012 236.3 62.468 235.276 62.468C234.188 62.468 233.724 63.172 233.644 63.908H231.452ZM240.87 72.34V70.676C243.51 68.436 246.278 66.372 246.278 64.228C246.278 63.188 245.814 62.484 244.71 62.484C243.638 62.484 243.046 63.252 243.03 64.484H240.854C240.934 61.812 242.646 60.58 244.742 60.58C247.254 60.58 248.518 62.068 248.518 64.1C248.518 66.804 245.91 68.916 244.054 70.484H248.774V72.34H240.87ZM249.93 63.7C249.93 62.036 251.018 61.108 252.474 61.108C253.93 61.108 255.018 62.036 255.018 63.7C255.018 65.38 253.93 66.308 252.474 66.308C251.018 66.308 249.93 65.38 249.93 63.7ZM252.458 62.452C251.914 62.452 251.578 62.82 251.578 63.7C251.578 64.58 251.914 64.964 252.458 64.964C253.018 64.964 253.37 64.58 253.37 63.7C253.37 62.82 253.018 62.452 252.458 62.452ZM251.738 72.5L258.01 61.3H260.202L253.914 72.5H251.738ZM256.954 70.084C256.954 68.404 258.042 67.492 259.498 67.492C260.938 67.492 262.01 68.404 262.01 70.084C262.01 71.78 260.938 72.692 259.498 72.692C258.042 72.692 256.954 71.78 256.954 70.084ZM259.482 68.836C258.922 68.836 258.57 69.204 258.57 70.084C258.57 70.98 258.922 71.348 259.482 71.348C260.026 71.348 260.378 70.98 260.378 70.084C260.378 69.204 260.026 68.836 259.482 68.836ZM267.612 60.692L267.228 62.916L268.988 61.524L269.788 62.964L267.708 63.716L269.788 64.468L268.956 65.956L267.228 64.532L267.596 66.74H265.932L266.284 64.532L264.572 65.988L263.692 64.452L265.772 63.7L263.708 62.98L264.524 61.508L266.3 62.916L265.932 60.692H267.612ZM275.893 60.692L275.509 62.916L277.269 61.524L278.069 62.964L275.989 63.716L278.069 64.468L277.237 65.956L275.509 64.532L275.877 66.74H274.213L274.565 64.532L272.853 65.988L271.973 64.452L274.053 63.7L271.989 62.98L272.805 61.508L274.581 62.916L274.213 60.692H275.893Z" fill="#E7EBEF"/>
</svg>
